# xmcd CD database file
#
# Track frame offsets:
#	150
#	3852
#	17317
#	28005
#	38352
#	52130
#	70425
#	86655
#	108735
#	131380
#	157032
#
# Disc length: 2441 seconds
#
# Revision: 0
# Processed by: cddbd v1.5.2PL0 Copyright (c) Steve Scherf et al.
# Submitted via: CDex 1.70beta3
#
DISCID=8409870b
DTITLE=ウー・ルーチン - ASIAN BREEZE ～アジアの新風～ 春夏秋冬
DYEAR=2007
DGENRE=New Age
TTITLE0=Introduction
TTITLE1=春告げる風
TTITLE2=Bamboo Forest
TTITLE3=くれない
TTITLE4=snowy crystal
TTITLE5=mealy primrose
TTITLE6=Jasmine Flower
TTITLE7=Milky Way
TTITLE8=千の風になって
TTITLE9=童謡メドレー
TTITLE10=冬至～目覚め～
EXTD=YEAR: 2007
EXTT0=
EXTT1=
EXTT2=
EXTT3=
EXTT4=
EXTT5=
EXTT6=
EXTT7=
EXTT8=
EXTT9=
EXTT10=
PLAYORDER=
